# Blender v2.74 (sub 0) OBJ File: ''
# www.blender.org
mtllib arrow.mtl
o Arrow
v -9.958951 -0.839793 -3.455698
v -9.958951 0.811647 -3.477000
v -8.729450 0.811647 -3.477000
v -8.729450 -0.839793 -3.455698
v -8.729450 -1.516121 1.553207
v -8.729450 -0.001707 3.848060
v -9.858060 -1.516122 1.553207
v -9.858060 -1.516122 1.553207
v -9.958951 -0.001708 3.848060
v -9.958951 -1.516122 1.553207
v -9.958951 1.541923 1.513762
v -8.810943 1.541923 1.513762
v -8.729450 1.541923 1.513762
v -8.729450 -1.516121 1.553207
v -9.958951 -1.516122 1.553207
v -9.958951 -0.812753 1.348060
v -8.777663 -0.812753 1.348060
v -8.777663 -0.812753 1.348060
v -8.729450 -0.812753 1.348060
v -9.958951 -1.651501 1.348060
v -9.958951 -0.812753 1.348060
v -9.646737 -0.812753 1.348060
v -9.646737 -0.812753 1.348060
v -8.729450 -0.812753 1.348060
v -8.729450 -1.651501 1.348060
v -8.729450 -0.812753 1.348060
v -8.729450 -0.811650 1.544120
v -9.958951 -0.812753 1.348060
v -9.958951 -0.811650 1.544120
v -8.729450 0.838807 1.348060
v -9.915977 0.838807 1.348060
v -9.915977 0.838807 1.348060
v -9.958951 0.838807 1.348060
v -9.958951 0.838807 1.348060
v -9.958951 1.651499 1.348060
v -8.729450 1.651499 1.348060
v -9.031964 0.838807 1.348060
v -9.031964 0.838807 1.348060
v -8.729450 0.838807 1.348060
v -8.729450 0.838807 1.348060
v -8.729450 0.839791 1.522819
v -9.958951 0.838807 1.348060
v -9.958951 0.839790 1.522819
v -9.958951 -0.748265 1.348060
v -9.958951 -0.811650 1.544120
v -9.958951 0.839790 1.522819
v -8.729450 0.780833 1.348060
v -8.729450 0.780833 1.348060
v -8.729450 0.839791 1.522819
v -8.729450 -0.811650 1.544120
vt 0.000000 1.000000
vt 0.000000 0.000000
vt 1.000000 0.000000
vt 1.000000 1.000000
vt 0.082059 0.000000
vt 0.082059 0.917941
vt 0.082059 1.000000
vt 0.066281 0.000000
vt 0.066281 0.933719
vt 0.066281 1.000000
vt 0.933719 0.066281
vt 0.917941 1.000000
vt 0.039213 0.000000
vt 0.039213 0.960787
vt 0.039213 1.000000
vt 0.000000 0.746065
vt 0.253935 0.746065
vt 1.000000 0.746065
vt 0.078424 0.706478
vt 0.921576 0.784902
vt 0.034953 0.000000
vt 0.034953 0.965047
vt 0.034953 1.000000
vt 0.000000 0.246047
vt 0.753953 0.246047
vt 1.000000 0.246047
vt 0.069903 0.210761
vt 0.930097 0.280664
vt 0.039047 0.960953
vt 0.965047 0.000000
vt 0.964898 0.035102
vt 0.960787 1.000000
vn -0.000000 -0.012900 -0.999900
vn 0.000000 -0.834600 0.550800
vn -0.000000 0.834100 0.551600
vn 1.000000 0.000000 0.000000
vn -1.000000 0.000000 0.000000
vn 0.000000 -1.000000 0.005600
vn 0.000000 0.000000 -1.000000
vn -0.000000 1.000000 -0.005600
usemtl Standard
s 1
f 1/1/1 2/2/1 3/3/1
f 1/1/1 3/3/1 4/4/1
f 5/5/2 6/3/2 7/6/2
f 8/6/2 6/3/2 9/4/2
f 8/6/2 9/4/2 10/7/2
f 11/8/3 9/3/3 12/9/3
f 12/9/3 9/3/3 6/4/3
f 12/9/3 6/4/3 13/10/3
f 13/8/4 6/3/4 14/6/4
f 9/1/5 11/11/5 15/12/5
f 16/13/6 1/3/6 17/14/6
f 18/14/6 1/3/6 4/4/6
f 18/14/6 4/4/6 19/15/6
f 20/1/7 21/16/7 22/17/7
f 20/1/7 23/17/7 24/18/7
f 20/1/7 24/18/7 25/4/7
f 20/1/2 25/2/2 5/5/2
f 20/1/2 5/5/2 7/6/2
f 20/1/2 8/6/2 10/7/2
f 25/1/4 26/16/4 27/19/4
f 25/1/4 27/19/4 14/6/4
f 28/18/5 20/4/5 15/12/5
f 28/18/5 15/12/5 29/20/5
f 30/21/8 3/3/8 31/22/8
f 32/22/8 3/3/8 2/4/8
f 32/22/8 2/4/8 33/23/8
f 34/24/7 35/2/7 36/3/7
f 34/24/7 36/3/7 37/25/7
f 38/25/7 36/3/7 39/26/7
f 36/1/3 35/2/3 11/8/3
f 36/1/3 11/8/3 12/9/3
f 36/1/3 12/9/3 13/10/3
f 40/24/4 36/2/4 13/8/4
f 40/24/4 13/8/4 41/27/4
f 11/11/5 35/3/5 42/26/5
f 11/11/5 42/26/5 43/28/5
f 33/21/5 2/3/5 44/29/5
f 44/29/5 2/3/5 1/4/5
f 44/29/5 1/4/5 16/15/5
f 45/1/5 46/2/5 33/21/5
f 45/1/5 33/21/5 44/29/5
f 45/1/5 44/29/5 16/15/5
f 4/1/4 3/2/4 30/30/4
f 4/1/4 30/30/4 47/31/4
f 4/1/4 48/31/4 19/32/4
f 30/30/4 49/3/4 47/31/4
f 48/31/4 49/3/4 50/4/4
f 48/31/4 50/4/4 19/32/4
